<svg width="512" height="512" viewBox="0 0 512 512" fill="none" xmlns="http://www.w3.org/2000/svg">
<g clip-path="url(#clip0_1_2)">
<path d="M320 192L256 0L192 192L0 256L192 320L256 512L320 320L512 256L320 192ZM85.3333 256L213.333 213.333L234.667 256H85.3333ZM256 426.667L213.333 298.667L256 277.333V426.667ZM256 85.3333L298.667 213.333L256 234.667V85.3333ZM298.667 298.667L277.333 256H426.667L298.667 298.667ZM185.6 369.067L106.667 405.333L142.933 326.4L177.067 337.067L185.6 369.067ZM369.067 326.4L405.333 405.333L326.4 369.067L337.067 334.933L369.067 326.4ZM142.933 185.6L106.667 106.667L185.6 142.933L174.933 174.933L142.933 185.6ZM326.4 142.933L405.333 106.667L369.067 185.6L334.933 174.933L326.4 142.933Z" fill="#F8F8F8"/>
</g>
<defs>
<clipPath id="clip0_1_2">
<rect width="512" height="512" fill="white"/>
</clipPath>
</defs>
</svg>
