<svg width="300" height="300" viewBox="0 0 300 300" fill="none" xmlns="http://www.w3.org/2000/svg">
<path d="M0 0H300V300H0V0Z" fill="#161618"/>
<path d="M86.767 148.99H95.503V152.37H86.767V148.99ZM87.079 159H82.867V140.8H96.621V144.18H87.079V159Z" fill="white"/>
<path d="M108.572 159V140.8H112.784V159H108.572Z" fill="white"/>
<path d="M126.204 159V140.8H130.416V155.568H139.542V159H126.204Z" fill="white"/>
<path d="M150.995 159V140.8H155.207V155.568H164.333V159H150.995Z" fill="white"/>
<path d="M179.661 148.132H188.423V151.408H179.661V148.132ZM179.973 155.62H189.879V159H175.787V140.8H189.541V144.18H179.973V155.62Z" fill="white"/>
<path d="M202.33 159V140.8H210.208C211.837 140.8 213.241 141.069 214.42 141.606C215.599 142.126 216.509 142.88 217.15 143.868C217.791 144.856 218.112 146.035 218.112 147.404C218.112 148.756 217.791 149.926 217.15 150.914C216.509 151.885 215.599 152.63 214.42 153.15C213.241 153.67 211.837 153.93 210.208 153.93H204.67L206.542 152.084V159H202.33ZM213.9 159L209.35 152.396H213.848L218.45 159H213.9ZM206.542 152.552L204.67 150.576H209.974C211.274 150.576 212.245 150.299 212.886 149.744C213.527 149.172 213.848 148.392 213.848 147.404C213.848 146.399 213.527 145.619 212.886 145.064C212.245 144.509 211.274 144.232 209.974 144.232H204.67L206.542 142.23V152.552Z" fill="white"/>
</svg>
