<svg width="150" height="150" viewBox="0 0 150 150" fill="none" xmlns="http://www.w3.org/2000/svg">
<path d="M110.375 70C108.938 68.125 107.188 66.5 105.563 64.875C101.375 61.125 96.625 58.4375 92.625 54.5C83.3125 45.375 81.25 30.3125 87.1875 18.75C81.25 20.1875 76.0625 23.4375 71.625 27C55.4375 40 49.0625 62.9375 56.6875 82.625C56.9375 83.25 57.1875 83.875 57.1875 84.6875C57.1875 86.0625 56.25 87.3125 55 87.8125C53.5625 88.4375 52.0625 88.0625 50.875 87.0625C50.5182 86.7675 50.2211 86.4068 50 86C42.9375 77.0625 41.8125 64.25 46.5625 54C36.125 62.5 30.4375 76.875 31.25 90.4375C31.625 93.5625 32 96.6875 33.0625 99.8125C33.9375 103.563 35.625 107.313 37.5 110.625C44.25 121.438 55.9375 129.188 68.5 130.75C81.875 132.438 96.1875 130 106.438 120.75C117.875 110.375 121.875 93.75 116 79.5L115.188 77.875C113.875 75 110.375 70 110.375 70ZM90.625 109.375C88.875 110.875 86 112.5 83.75 113.125C76.75 115.625 69.75 112.125 65.625 108C73.0625 106.25 77.5 100.75 78.8125 95.1875C79.875 90.1875 77.875 86.0625 77.0625 81.25C76.3125 76.625 76.4375 72.6875 78.125 68.375C79.3125 70.75 80.5625 73.125 82.0625 75C86.875 81.25 94.4375 84 96.0625 92.5C96.3125 93.375 96.4375 94.25 96.4375 95.1875C96.625 100.312 94.375 105.937 90.625 109.375Z" fill="#F24E1E"/>
</svg>
